<?xml version="1.0" encoding="utf-8"?>
<!-- Generator: Adobe Illustrator 16.2.0, SVG Export Plug-In . SVG Version: 6.00 Build 0)  -->
<!DOCTYPE svg PUBLIC "-//W3C//DTD SVG 1.1//EN" "http://www.w3.org/Graphics/SVG/1.1/DTD/svg11.dtd">
<svg version="1.1" id="Layer_1" xmlns="http://www.w3.org/2000/svg" xmlns:xlink="http://www.w3.org/1999/xlink" x="0px" y="0px"
	 width="374.459px" height="367.967px" viewBox="0 0 374.459 367.967" enable-background="new 0 0 374.459 367.967"
	 xml:space="preserve">
<path fill="#FFFF00" stroke="#000000" stroke-miterlimit="10" d="M188.175,6.186C89.488,6.186,9.486,86.187,9.486,184.874
	c0,98.687,80.001,178.688,178.688,178.688c98.687,0,178.688-80.002,178.688-178.688C366.863,86.187,286.861,6.186,188.175,6.186z"/>
<ellipse fill="#FFFFFF" stroke="#000000" stroke-miterlimit="10" cx="236.109" cy="178.617" rx="47.541" ry="48.907"/>
<ellipse fill="#FFFFFF" stroke="#000000" stroke-miterlimit="10" cx="158.874" cy="178.617" rx="51.366" ry="48.907"/>
<ellipse stroke="#000000" stroke-miterlimit="10" cx="182.872" cy="178.183" rx="10.697" ry="10.309"/>
<ellipse stroke="#000000" stroke-miterlimit="10" cx="261.872" cy="178.183" rx="10.697" ry="10.309"/>
<g>
	<g>
		<path d="M110.508,112c14.249-0.605,28.5-1.147,42.756-1.57c11.086-0.328,22.764,0.406,33.741-1.369
			c1.906-0.308,1.094-3.199-0.798-2.893c-11.296,1.826-23.443,0.98-34.854,1.318c-13.619,0.403-27.233,0.935-40.845,1.513
			C108.581,109.082,108.573,112.082,110.508,112L110.508,112z"/>
	</g>
</g>
<g>
	<g>
		<path d="M207.508,119.211c14.564-0.225,29.128-0.427,43.693-0.586c11.982-0.13,24.063,0.197,36.028-0.513
			c1.922-0.114,1.934-3.115,0-3c-11.965,0.71-24.046,0.385-36.028,0.513c-14.564,0.155-29.129,0.361-43.693,0.586
			C205.576,116.241,205.573,119.241,207.508,119.211L207.508,119.211z"/>
	</g>
</g>
<g>
	<g>
		<path d="M133.81,293.825c19.461,21.92,49.843,22.005,76.47,17.13c12.008-2.198,24.198-4.182,35.64-8.586
			c8.246-3.175,17.122-8.5,18.655-17.949c0.307-1.892-2.583-2.703-2.893-0.797c-1.578,9.719-11.613,14.181-19.934,17.091
			c-10.41,3.64-21.453,5.38-32.267,7.349c-25.615,4.665-54.809,4.753-73.551-16.358C134.644,290.255,132.53,292.384,133.81,293.825
			L133.81,293.825z"/>
	</g>
</g>
</svg>
