<?xml version="1.0" encoding="utf-8"?>
<!-- Generator: Adobe Illustrator 16.2.0, SVG Export Plug-In . SVG Version: 6.00 Build 0)  -->
<!DOCTYPE svg PUBLIC "-//W3C//DTD SVG 1.1//EN" "http://www.w3.org/Graphics/SVG/1.1/DTD/svg11.dtd">
<svg version="1.1" id="Layer_1" xmlns="http://www.w3.org/2000/svg" xmlns:xlink="http://www.w3.org/1999/xlink" x="0px" y="0px"
	 width="374.459px" height="367.967px" viewBox="0 0 374.459 367.967" enable-background="new 0 0 374.459 367.967"
	 xml:space="preserve">
<path fill="#FFFF00" stroke="#000000" stroke-miterlimit="10" d="M188.175,6.186C89.488,6.186,9.486,86.187,9.486,184.874
	c0,98.687,80.001,178.688,178.688,178.688c98.687,0,178.688-80.002,178.688-178.688C366.863,86.187,286.861,6.186,188.175,6.186z"/>
<ellipse fill="#FFFFFF" stroke="#000000" stroke-miterlimit="10" cx="236.109" cy="178.617" rx="47.541" ry="48.907"/>
<ellipse fill="#FFFFFF" stroke="#000000" stroke-miterlimit="10" cx="158.874" cy="178.617" rx="51.366" ry="48.907"/>
<ellipse stroke="#000000" stroke-miterlimit="10" cx="182.872" cy="178.183" rx="10.697" ry="10.309"/>
<ellipse stroke="#000000" stroke-miterlimit="10" cx="261.872" cy="178.183" rx="10.697" ry="10.309"/>
<g>
	<g>
		<path d="M123.429,103.689c11.205,5.085,22.56,9.783,34.254,13.629c5.255,1.729,10.601,3.249,15.947,4.668
			c5.181,1.376,11.079,2.328,13.976,7.383c0.962,1.677,3.554,0.167,2.591-1.515c-4.627-8.07-16.598-8.963-24.693-11.271
			c-13.939-3.974-27.38-9.503-40.562-15.485C123.195,100.305,121.669,102.89,123.429,103.689L123.429,103.689z"/>
	</g>
</g>
<g>
	<g>
		<path d="M206.363,130.361c22.711-11.114,49.46-11.795,70.492-26.672c1.565-1.107,0.069-3.71-1.515-2.591
			c-20.985,14.845-47.797,15.567-70.491,26.672C203.112,128.621,204.633,131.208,206.363,130.361L206.363,130.361z"/>
	</g>
</g>
<g>
	<g>
		<path d="M161.009,318.989c4.972-3.073,9.671-6.024,15.5-7.133c5.142-0.978,10.749-1.189,15.968-1.297
			c6.527-0.136,10.635,0.982,14.289,6.575c2.695,4.125,4.54,8.76,7.382,12.791c1.105,1.567,3.708,0.071,2.591-1.514
			c-3.329-4.722-5.474-10.163-8.809-14.895c-2.968-4.21-6.542-5.41-11.507-5.854c-6.229-0.558-12.543,0.48-18.737,1.03
			c-6.865,0.609-12.475,4.172-18.19,7.705C157.853,317.414,159.358,320.01,161.009,318.989L161.009,318.989z"/>
	</g>
</g>
</svg>
